<svg width="342" height="97" viewBox="0 0 342 97" fill="none" xmlns="http://www.w3.org/2000/svg">
<path d="M21.448 78.352C17.928 78.352 14.568 77.712 11.368 76.432C8.232 75.216 5.672 73.296 3.688 70.672C1.704 68.112 0.712 64.912 0.712 61.072C0.712 57.68 1.416 55.056 2.824 53.2C4.232 51.28 5.96 49.936 8.008 49.168C10.056 48.4 12.008 48.016 13.864 48.016C12.008 50 10.6 52.112 9.64 54.352C8.744 56.592 8.296 58.832 8.296 61.072C8.296 63.376 8.808 65.52 9.832 67.504C10.92 69.488 12.552 71.088 14.728 72.304C16.968 73.52 19.752 74.128 23.08 74.128C25.96 74.128 28.776 73.616 31.528 72.592C34.28 71.568 36.52 70.064 38.248 68.08C40.04 66.032 40.936 63.504 40.936 60.496C40.936 57.808 40.2 55.504 38.728 53.584C37.32 51.6 35.464 49.84 33.16 48.304C30.92 46.768 28.52 45.296 25.96 43.888C23.464 42.48 21.064 41.008 18.76 39.472C16.52 37.872 14.664 36.048 13.192 34C11.784 31.888 11.08 29.392 11.08 26.512C11.08 23.824 11.72 21.008 13 18.064C14.28 15.12 16.136 12.336 18.568 9.712C21 7.088 23.912 4.976 27.304 3.376C30.696 1.712 34.472 0.879997 38.632 0.879997C42.6 0.879997 45.384 1.808 46.984 3.664C48.584 5.456 49.384 7.792 49.384 10.672C49.384 12.976 48.968 15.472 48.136 18.16C47.304 20.784 46.312 23.312 45.16 25.744C44.008 28.176 42.92 30.224 41.896 31.888C40.616 31.632 39.688 31.12 39.112 30.352C38.6 29.584 38.344 28.624 38.344 27.472C38.344 26.128 38.632 24.624 39.208 22.96C39.784 21.232 40.424 19.472 41.128 17.68C41.832 15.824 42.472 14.032 43.048 12.304C43.624 10.512 43.912 8.944 43.912 7.6C43.912 6.384 43.528 5.424 42.76 4.72C42.056 4.016 40.68 3.664 38.632 3.664C35.624 3.664 32.84 4.368 30.28 5.776C27.72 7.12 25.48 8.88 23.56 11.056C21.64 13.168 20.168 15.44 19.144 17.872C18.12 20.24 17.608 22.384 17.608 24.304C17.608 26.672 18.312 28.688 19.72 30.352C21.128 32.016 22.92 33.552 25.096 34.96C27.336 36.304 29.704 37.648 32.2 38.992C34.76 40.336 37.128 41.872 39.304 43.6C41.544 45.264 43.368 47.248 44.776 49.552C46.184 51.792 46.888 54.544 46.888 57.808C46.888 61.136 46.152 64.08 44.68 66.64C43.208 69.136 41.224 71.248 38.728 72.976C36.232 74.768 33.48 76.112 30.472 77.008C27.464 77.904 24.456 78.352 21.448 78.352ZM59.9343 73.072C57.1183 73.072 55.1343 72.176 53.9823 70.384C52.8942 68.656 52.3502 66.608 52.3502 64.24C52.3502 62.256 52.6702 60.208 53.3102 58.096C53.9503 55.92 54.8143 53.904 55.9023 52.048C56.9903 50.192 58.2063 48.72 59.5503 47.632C60.8943 46.48 62.2383 45.904 63.5823 45.904C63.9663 45.904 64.3503 45.968 64.7343 46.096C65.1823 46.16 65.5663 46.288 65.8863 46.48C65.2463 47.184 64.5103 48.24 63.6783 49.648C62.9103 50.992 62.1743 52.528 61.4703 54.256C60.7663 55.92 60.1903 57.616 59.7422 59.344C59.2943 61.008 59.0703 62.448 59.0703 63.664C59.0703 65.392 59.3583 66.704 59.9343 67.6C60.5743 68.432 61.4383 68.848 62.5263 68.848C63.8063 68.848 65.3423 68.144 67.1343 66.736C68.9263 65.264 70.6863 63.504 72.4143 61.456C70.5583 59.856 69.1503 57.904 68.1903 55.6C67.2303 53.232 66.7503 50.672 66.7503 47.92C66.7503 46.064 67.1023 44.24 67.8063 42.448C68.5103 40.656 69.5663 39.184 70.9743 38.032C72.4463 36.816 74.2703 36.208 76.4463 36.208C79.1343 36.208 80.9583 36.944 81.9183 38.416C82.8783 39.824 83.3583 41.584 83.3583 43.696C83.3583 46.192 82.7503 48.944 81.5343 51.952C80.3183 54.96 78.7823 57.84 76.9263 60.592C77.9503 61.104 79.0703 61.36 80.2863 61.36C81.3103 61.36 82.4623 61.168 83.7423 60.784C85.0223 60.336 86.3023 59.6 87.5823 58.576C88.8623 57.552 89.8863 56.144 90.6543 54.352L91.9983 55.408C90.6543 58.544 88.7983 60.784 86.4303 62.128C84.1263 63.408 81.8863 64.048 79.7103 64.048C78.8783 64.048 78.0783 63.984 77.3103 63.856C76.5423 63.664 75.8063 63.44 75.1023 63.184C72.9263 65.936 70.4943 68.272 67.8063 70.192C65.1183 72.112 62.4943 73.072 59.9343 73.072ZM74.4303 58.768C75.9663 56.4 77.2783 53.936 78.3663 51.376C79.4543 48.816 79.9983 46.384 79.9983 44.08C79.9983 42.352 79.7423 41.104 79.2303 40.336C78.7183 39.504 78.0143 39.088 77.1183 39.088C75.9023 39.088 74.6223 40.016 73.2783 41.872C71.9343 43.664 71.2623 45.936 71.2623 48.688C71.2623 50.352 71.5183 52.144 72.0303 54.064C72.6063 55.984 73.4063 57.552 74.4303 58.768ZM120.144 71.92C117.776 71.92 115.984 71.312 114.768 70.096C113.616 68.944 113.04 67.44 113.04 65.584C113.04 64.304 113.264 62.928 113.712 61.456C114.224 59.984 114.704 58.48 115.152 56.944C115.6 55.408 115.824 53.936 115.824 52.528C115.824 50.864 115.472 49.712 114.768 49.072C114.064 48.432 113.2 48.112 112.176 48.112C110.192 48.112 108.176 48.912 106.128 50.512C104.08 52.112 102.096 54.16 100.176 56.656C98.3203 59.152 96.5603 61.712 94.8963 64.336C93.2323 66.96 91.7603 69.328 90.4803 71.44C89.3923 71.44 88.3682 71.248 87.4082 70.864C86.3842 70.48 85.5842 69.904 85.0082 69.136C85.0082 68.816 85.3602 67.824 86.0642 66.16C86.7042 64.496 87.4722 62.48 88.3682 60.112C89.2643 57.744 90.0323 55.28 90.6723 52.72C91.3763 50.16 91.7283 47.856 91.7283 45.808C92.1123 45.296 92.7203 44.816 93.5523 44.368C94.4483 43.92 95.3763 43.696 96.3363 43.696C98.2563 43.696 99.2163 44.56 99.2163 46.288C99.2163 47.248 98.9603 48.784 98.4483 50.896C98.0003 52.944 97.3923 55.184 96.6243 57.616C98.2883 55.12 100.176 52.688 102.288 50.32C104.4 47.888 106.608 45.904 108.912 44.368C111.28 42.768 113.616 41.968 115.92 41.968C118.544 41.968 120.432 42.896 121.584 44.752C122.8 46.544 123.408 48.528 123.408 50.704C123.408 52.688 123.088 54.512 122.448 56.176C121.808 57.84 121.136 59.44 120.432 60.976C119.792 62.512 119.472 64.048 119.472 65.584C119.472 66.864 119.728 67.76 120.24 68.272C120.816 68.72 121.456 68.944 122.16 68.944C123.76 68.944 125.36 68.208 126.96 66.736C128.624 65.264 130.192 63.376 131.664 61.072C133.2 58.768 134.544 56.432 135.696 54.064L136.944 55.408C135.6 58.544 134.064 61.36 132.336 63.856C130.672 66.288 128.816 68.24 126.768 69.712C124.784 71.184 122.576 71.92 120.144 71.92ZM137.595 96.88C136.123 96.88 134.779 96.432 133.562 95.536C132.346 94.64 131.738 93.168 131.738 91.12C131.738 89.136 132.346 87.312 133.562 85.648C134.715 84.048 136.219 82.544 138.075 81.136C139.995 79.792 142.043 78.544 144.219 77.392C146.459 76.24 148.603 75.152 150.651 74.128C151.483 72.08 152.251 69.872 152.955 67.504C153.723 65.072 154.459 62.448 155.163 59.632C152.795 62.896 150.299 65.616 147.674 67.792C145.115 69.968 142.523 71.056 139.898 71.056C137.467 71.056 135.579 70.192 134.235 68.464C132.954 66.672 132.314 64.368 132.314 61.552C132.314 58.224 133.114 55.056 134.715 52.048C136.379 49.04 138.523 46.384 141.147 44.08C143.835 41.776 146.651 39.984 149.595 38.704C152.603 37.36 155.451 36.688 158.139 36.688C160.059 36.688 161.435 37.008 162.267 37.648C163.163 38.288 163.611 39.056 163.611 39.952C163.611 40.592 163.419 41.104 163.035 41.488C162.715 41.808 162.491 42 162.363 42.064C161.915 41.488 161.371 41.104 160.731 40.912C160.091 40.656 159.291 40.528 158.331 40.528C155.835 40.528 153.403 41.264 151.035 42.736C148.731 44.208 146.683 46.096 144.891 48.4C143.163 50.64 141.755 52.976 140.667 55.408C139.643 57.84 139.131 60.048 139.131 62.032C139.131 63.504 139.419 64.624 139.995 65.392C140.635 66.096 141.435 66.448 142.395 66.448C144.187 66.448 146.363 65.264 148.923 62.896C151.547 60.464 154.075 57.52 156.507 54.064C156.635 53.296 156.763 52.624 156.891 52.048C157.083 51.408 157.275 50.64 157.467 49.744C157.787 48.336 158.331 47.024 159.099 45.808C159.931 44.592 161.147 43.984 162.747 43.984C163.067 43.984 163.387 44.016 163.707 44.08C164.091 44.144 164.507 44.24 164.955 44.368C164.955 45.392 164.635 47.248 163.995 49.936C163.419 52.624 162.555 55.76 161.403 59.344C160.315 62.928 159.067 66.608 157.659 70.384C159.707 69.424 161.755 68.176 163.803 66.64C165.851 65.04 167.707 63.184 169.371 61.072C171.035 58.96 172.347 56.656 173.307 54.16L174.747 55.408C173.723 58.288 172.155 60.944 170.043 63.376C167.931 65.744 165.659 67.792 163.227 69.52C160.795 71.248 158.555 72.592 156.507 73.552C154.779 77.84 152.891 81.744 150.843 85.264C148.859 88.784 146.779 91.6 144.603 93.712C142.427 95.824 140.091 96.88 137.595 96.88ZM137.307 93.328C138.523 93.328 140.187 92.112 142.299 89.68C144.475 87.312 146.811 83.216 149.307 77.392C146.811 78.608 144.475 79.888 142.299 81.232C140.187 82.576 138.459 83.984 137.115 85.456C135.771 86.928 135.099 88.528 135.099 90.256C135.099 91.216 135.291 91.952 135.675 92.464C136.123 93.04 136.667 93.328 137.307 93.328Z" fill="white"/>
<path d="M184.976 78.352C181.328 78.352 178.576 77.744 176.72 76.528C174.864 75.312 173.904 73.296 173.84 70.48C173.84 70.16 174.064 70 174.512 70C175.024 70 175.856 70.128 177.008 70.384C178.16 70.704 180.4 70.864 183.728 70.864C189.232 70.864 194.32 70.256 198.992 69.04C203.728 67.824 207.824 66.16 211.28 64.048C214.736 61.936 217.392 59.568 219.248 56.944C221.168 54.256 222.128 51.472 222.128 48.592C222.128 46.032 221.392 43.984 219.92 42.448C218.448 40.848 216.496 39.632 214.064 38.8C211.632 37.968 208.976 37.424 206.096 37.168C203.28 36.912 200.496 36.784 197.744 36.784C196.528 36.784 195.28 36.816 194 36.88C192.784 36.88 191.632 36.88 190.544 36.88C189.072 41.936 187.632 47.088 186.224 52.336C184.88 57.52 183.472 62.608 182 67.6C180.272 67.6 178.8 67.12 177.584 66.16C176.432 65.2 175.856 64.048 175.856 62.704C175.856 62 175.984 61.168 176.24 60.208C176.56 59.184 176.88 58.192 177.2 57.232C177.584 55.952 178.256 53.84 179.216 50.896C180.176 47.952 181.328 44.496 182.672 40.528C184.016 36.56 185.488 32.4 187.088 28.048C188.752 23.696 190.448 19.44 192.176 15.28C193.904 11.056 195.6 7.312 197.264 4.048C194.64 4.56 192.432 5.232 190.64 6.064C188.848 6.832 187.44 7.536 186.416 8.17599C185.456 8.816 184.752 9.136 184.304 9.136C183.92 9.136 183.472 8.976 182.96 8.65599C182.448 8.33599 181.968 7.952 181.52 7.504C181.136 6.992 180.944 6.544 180.944 6.16C184.208 4.816 187.632 3.6 191.216 2.512C194.8 1.424 199.12 0.879997 204.176 0.879997C206.352 0.879997 208.752 1.072 211.376 1.456C214 1.776 216.496 2.48 218.864 3.568C221.232 4.592 223.184 6.12799 224.72 8.17599C226.256 10.224 227.024 12.912 227.024 16.24C227.024 19.248 226.352 21.84 225.008 24.016C223.728 26.128 222.032 27.92 219.92 29.392C217.808 30.8 215.504 31.952 213.008 32.848C210.512 33.68 208.048 34.32 205.616 34.768C210.096 35.152 213.744 35.888 216.56 36.976C219.44 38.064 221.616 39.376 223.088 40.912C224.624 42.384 225.68 43.952 226.256 45.616C226.832 47.216 227.12 48.752 227.12 50.224C227.12 54 226.128 57.392 224.144 60.4C222.224 63.408 219.664 66.032 216.464 68.272C213.328 70.512 209.872 72.368 206.096 73.84C202.384 75.376 198.672 76.496 194.96 77.2C191.248 77.968 187.92 78.352 184.976 78.352ZM191.216 34.192C194.8 34.064 198.32 33.648 201.776 32.944C205.232 32.24 208.368 31.184 211.184 29.776C214.064 28.304 216.368 26.416 218.096 24.112C219.824 21.808 220.688 18.928 220.688 15.472C220.688 12.272 219.888 9.808 218.288 8.08C216.688 6.288 214.608 5.072 212.048 4.432C209.552 3.728 206.864 3.376 203.984 3.376C203.792 3.376 203.568 3.376 203.312 3.376C203.12 3.376 202.896 3.376 202.64 3.376C200.4 7.792 198.352 12.656 196.496 17.968C194.64 23.216 192.88 28.624 191.216 34.192ZM238.263 72.592C235.639 72.592 233.687 71.792 232.407 70.192C231.127 68.592 230.486 66.672 230.486 64.432C230.486 62.96 230.742 61.104 231.255 58.864C231.831 56.624 232.567 54.288 233.463 51.856C234.359 49.36 235.383 47.024 236.535 44.848C237.751 42.672 239.031 40.912 240.375 39.568C241.783 38.16 243.159 37.456 244.503 37.456C245.143 37.456 245.687 37.648 246.135 38.032C246.583 38.416 246.807 38.992 246.807 39.76C246.807 40.528 246.295 41.776 245.271 43.504C244.311 45.232 243.159 47.216 241.815 49.456C240.535 51.632 239.383 53.936 238.359 56.368C237.399 58.8 236.919 61.104 236.919 63.28C236.919 65.52 237.271 67.024 237.975 67.792C238.743 68.496 239.895 68.848 241.431 68.848C243.607 68.848 245.943 67.76 248.439 65.584C250.935 63.408 253.559 59.6 256.311 54.16L257.367 55.312C255.383 60.816 252.663 65.072 249.207 68.08C245.751 71.088 242.103 72.592 238.263 72.592ZM249.687 28.912C248.599 28.912 247.607 28.656 246.711 28.144C245.879 27.568 245.463 26.704 245.463 25.552C245.463 24.144 246.263 22.928 247.863 21.904C249.463 20.88 251.063 20.368 252.663 20.368C253.687 20.368 254.519 20.592 255.159 21.04C255.863 21.488 256.215 22.32 256.215 23.536C256.215 24.752 255.511 25.968 254.103 27.184C252.759 28.336 251.287 28.912 249.687 28.912ZM271.305 72.496C269.065 72.496 267.273 71.888 265.929 70.672C264.649 69.52 264.009 67.984 264.009 66.064C264.009 64.144 264.457 62.16 265.353 60.112C266.249 58 267.113 55.92 267.945 53.872C268.841 51.824 269.289 50 269.289 48.4C269.289 46.544 268.745 45.136 267.657 44.176C266.569 43.152 265.385 42.256 264.105 41.488C262.697 45.136 261.161 48.656 259.497 52.048C257.833 55.376 256.489 57.936 255.465 59.728L254.409 57.712C255.305 56.048 256.457 53.648 257.865 50.512C259.337 47.312 260.777 43.728 262.185 39.76C261.545 39.12 261.225 38.32 261.225 37.36C261.225 35.504 261.737 33.936 262.761 32.656C263.849 31.376 264.713 30.736 265.353 30.736C266.121 30.736 266.569 31.088 266.697 31.792C266.889 32.432 266.984 32.912 266.984 33.232C266.984 33.552 266.825 34.16 266.505 35.056C266.185 35.952 265.993 36.528 265.929 36.784C265.993 37.616 266.505 38.416 267.465 39.184C268.489 39.888 269.641 40.688 270.921 41.584C272.265 42.48 273.417 43.6 274.377 44.944C275.401 46.288 275.913 47.984 275.913 50.032C275.913 51.888 275.497 53.808 274.665 55.792C273.897 57.776 273.097 59.632 272.265 61.36C271.497 63.088 271.113 64.624 271.113 65.968C271.113 66.992 271.369 67.696 271.881 68.08C272.457 68.4 273.097 68.56 273.801 68.56C275.337 68.56 276.905 68.112 278.505 67.216C280.169 66.256 281.769 65.04 283.305 63.568C284.905 62.096 286.313 60.56 287.529 58.96C288.745 57.296 289.641 55.76 290.217 54.352L291.849 55.6C290.633 58.288 288.937 60.944 286.761 63.568C284.585 66.192 282.153 68.336 279.465 70C276.841 71.664 274.121 72.496 271.305 72.496ZM294.108 72.88C293.02 72.88 291.868 72.592 290.652 72.016C289.5 71.44 288.54 70.544 287.772 69.328C287.004 68.112 286.62 66.544 286.62 64.624C286.62 62.512 287.132 60.144 288.156 57.52C289.18 54.896 290.556 52.304 292.284 49.744C294.012 47.12 295.996 44.72 298.236 42.544C300.54 40.304 302.94 38.544 305.436 37.264C307.932 35.92 310.428 35.248 312.924 35.248C314.332 35.248 315.42 35.504 316.188 36.016C316.956 36.464 317.34 37.2 317.34 38.224C317.34 38.48 317.308 38.768 317.244 39.088C317.18 39.344 317.02 39.6 316.764 39.856C316.508 39.408 316.06 39.088 315.42 38.896C314.78 38.64 314.044 38.512 313.212 38.512C311.164 38.512 309.148 39.152 307.164 40.432C305.244 41.648 303.484 43.248 301.884 45.232C300.284 47.152 298.876 49.264 297.66 51.568C296.444 53.808 295.484 55.984 294.78 58.096C294.14 60.144 293.82 61.904 293.82 63.376C293.82 64.72 294.108 65.808 294.684 66.64C295.324 67.408 296.156 67.792 297.18 67.792C298.908 67.792 300.988 66.736 303.42 64.624C305.852 62.512 308.348 59.504 310.908 55.6C313.468 51.696 315.772 47.088 317.82 41.776C319.228 38.064 320.668 34.288 322.14 30.448C323.676 26.608 325.212 22.928 326.748 19.408C328.284 15.888 329.788 12.752 331.26 10C332.732 7.184 334.14 4.976 335.484 3.376C336.828 1.712 338.012 0.879997 339.036 0.879997C339.612 0.879997 340.124 1.104 340.572 1.55199C341.02 2 341.244 2.576 341.244 3.27999C341.244 4.368 340.7 6.128 339.612 8.56C338.588 10.992 337.244 13.904 335.58 17.296C333.916 20.688 332.124 24.368 330.204 28.336C328.348 32.304 326.588 36.368 324.924 40.528C323.26 44.624 321.884 48.624 320.796 52.528C319.772 56.432 319.26 60.016 319.26 63.28C319.26 65.008 319.356 66.256 319.548 67.024C319.804 67.792 320.412 68.176 321.372 68.176C322.716 68.176 324.284 67.632 326.076 66.544C327.868 65.392 329.66 63.76 331.452 61.648C333.244 59.536 334.812 56.976 336.156 53.968L337.596 55.12C336.316 58.448 334.588 61.424 332.412 64.048C330.3 66.672 328.028 68.72 325.596 70.192C323.164 71.728 320.828 72.496 318.588 72.496C316.092 72.496 314.364 71.696 313.404 70.096C312.444 68.496 311.964 66.768 311.964 64.912C311.964 63.824 312.092 62.512 312.348 60.976C312.668 59.44 313.052 57.776 313.5 55.984C311.452 59.184 309.276 62.096 306.972 64.72C304.732 67.28 302.524 69.264 300.348 70.672C298.172 72.144 296.092 72.88 294.108 72.88Z" fill="#DD80D5"/>
<path d="M184.976 78.352C181.328 78.352 178.576 77.744 176.72 76.528C174.864 75.312 173.904 73.296 173.84 70.48C173.84 70.16 174.064 70 174.512 70C175.024 70 175.856 70.128 177.008 70.384C178.16 70.704 180.4 70.864 183.728 70.864C189.232 70.864 194.32 70.256 198.992 69.04C203.728 67.824 207.824 66.16 211.28 64.048C214.736 61.936 217.392 59.568 219.248 56.944C221.168 54.256 222.128 51.472 222.128 48.592C222.128 46.032 221.392 43.984 219.92 42.448C218.448 40.848 216.496 39.632 214.064 38.8C211.632 37.968 208.976 37.424 206.096 37.168C203.28 36.912 200.496 36.784 197.744 36.784C196.528 36.784 195.28 36.816 194 36.88C192.784 36.88 191.632 36.88 190.544 36.88C189.072 41.936 187.632 47.088 186.224 52.336C184.88 57.52 183.472 62.608 182 67.6C180.272 67.6 178.8 67.12 177.584 66.16C176.432 65.2 175.856 64.048 175.856 62.704C175.856 62 175.984 61.168 176.24 60.208C176.56 59.184 176.88 58.192 177.2 57.232C177.584 55.952 178.256 53.84 179.216 50.896C180.176 47.952 181.328 44.496 182.672 40.528C184.016 36.56 185.488 32.4 187.088 28.048C188.752 23.696 190.448 19.44 192.176 15.28C193.904 11.056 195.6 7.312 197.264 4.048C194.64 4.56 192.432 5.232 190.64 6.064C188.848 6.832 187.44 7.536 186.416 8.17599C185.456 8.816 184.752 9.136 184.304 9.136C183.92 9.136 183.472 8.976 182.96 8.65599C182.448 8.33599 181.968 7.952 181.52 7.504C181.136 6.992 180.944 6.544 180.944 6.16C184.208 4.816 187.632 3.6 191.216 2.512C194.8 1.424 199.12 0.879997 204.176 0.879997C206.352 0.879997 208.752 1.072 211.376 1.456C214 1.776 216.496 2.48 218.864 3.568C221.232 4.592 223.184 6.12799 224.72 8.17599C226.256 10.224 227.024 12.912 227.024 16.24C227.024 19.248 226.352 21.84 225.008 24.016C223.728 26.128 222.032 27.92 219.92 29.392C217.808 30.8 215.504 31.952 213.008 32.848C210.512 33.68 208.048 34.32 205.616 34.768C210.096 35.152 213.744 35.888 216.56 36.976C219.44 38.064 221.616 39.376 223.088 40.912C224.624 42.384 225.68 43.952 226.256 45.616C226.832 47.216 227.12 48.752 227.12 50.224C227.12 54 226.128 57.392 224.144 60.4C222.224 63.408 219.664 66.032 216.464 68.272C213.328 70.512 209.872 72.368 206.096 73.84C202.384 75.376 198.672 76.496 194.96 77.2C191.248 77.968 187.92 78.352 184.976 78.352ZM191.216 34.192C194.8 34.064 198.32 33.648 201.776 32.944C205.232 32.24 208.368 31.184 211.184 29.776C214.064 28.304 216.368 26.416 218.096 24.112C219.824 21.808 220.688 18.928 220.688 15.472C220.688 12.272 219.888 9.808 218.288 8.08C216.688 6.288 214.608 5.072 212.048 4.432C209.552 3.728 206.864 3.376 203.984 3.376C203.792 3.376 203.568 3.376 203.312 3.376C203.12 3.376 202.896 3.376 202.64 3.376C200.4 7.792 198.352 12.656 196.496 17.968C194.64 23.216 192.88 28.624 191.216 34.192ZM238.263 72.592C235.639 72.592 233.687 71.792 232.407 70.192C231.127 68.592 230.486 66.672 230.486 64.432C230.486 62.96 230.742 61.104 231.255 58.864C231.831 56.624 232.567 54.288 233.463 51.856C234.359 49.36 235.383 47.024 236.535 44.848C237.751 42.672 239.031 40.912 240.375 39.568C241.783 38.16 243.159 37.456 244.503 37.456C245.143 37.456 245.687 37.648 246.135 38.032C246.583 38.416 246.807 38.992 246.807 39.76C246.807 40.528 246.295 41.776 245.271 43.504C244.311 45.232 243.159 47.216 241.815 49.456C240.535 51.632 239.383 53.936 238.359 56.368C237.399 58.8 236.919 61.104 236.919 63.28C236.919 65.52 237.271 67.024 237.975 67.792C238.743 68.496 239.895 68.848 241.431 68.848C243.607 68.848 245.943 67.76 248.439 65.584C250.935 63.408 253.559 59.6 256.311 54.16L257.367 55.312C255.383 60.816 252.663 65.072 249.207 68.08C245.751 71.088 242.103 72.592 238.263 72.592ZM249.687 28.912C248.599 28.912 247.607 28.656 246.711 28.144C245.879 27.568 245.463 26.704 245.463 25.552C245.463 24.144 246.263 22.928 247.863 21.904C249.463 20.88 251.063 20.368 252.663 20.368C253.687 20.368 254.519 20.592 255.159 21.04C255.863 21.488 256.215 22.32 256.215 23.536C256.215 24.752 255.511 25.968 254.103 27.184C252.759 28.336 251.287 28.912 249.687 28.912ZM271.305 72.496C269.065 72.496 267.273 71.888 265.929 70.672C264.649 69.52 264.009 67.984 264.009 66.064C264.009 64.144 264.457 62.16 265.353 60.112C266.249 58 267.113 55.92 267.945 53.872C268.841 51.824 269.289 50 269.289 48.4C269.289 46.544 268.745 45.136 267.657 44.176C266.569 43.152 265.385 42.256 264.105 41.488C262.697 45.136 261.161 48.656 259.497 52.048C257.833 55.376 256.489 57.936 255.465 59.728L254.409 57.712C255.305 56.048 256.457 53.648 257.865 50.512C259.337 47.312 260.777 43.728 262.185 39.76C261.545 39.12 261.225 38.32 261.225 37.36C261.225 35.504 261.737 33.936 262.761 32.656C263.849 31.376 264.713 30.736 265.353 30.736C266.121 30.736 266.569 31.088 266.697 31.792C266.889 32.432 266.984 32.912 266.984 33.232C266.984 33.552 266.825 34.16 266.505 35.056C266.185 35.952 265.993 36.528 265.929 36.784C265.993 37.616 266.505 38.416 267.465 39.184C268.489 39.888 269.641 40.688 270.921 41.584C272.265 42.48 273.417 43.6 274.377 44.944C275.401 46.288 275.913 47.984 275.913 50.032C275.913 51.888 275.497 53.808 274.665 55.792C273.897 57.776 273.097 59.632 272.265 61.36C271.497 63.088 271.113 64.624 271.113 65.968C271.113 66.992 271.369 67.696 271.881 68.08C272.457 68.4 273.097 68.56 273.801 68.56C275.337 68.56 276.905 68.112 278.505 67.216C280.169 66.256 281.769 65.04 283.305 63.568C284.905 62.096 286.313 60.56 287.529 58.96C288.745 57.296 289.641 55.76 290.217 54.352L291.849 55.6C290.633 58.288 288.937 60.944 286.761 63.568C284.585 66.192 282.153 68.336 279.465 70C276.841 71.664 274.121 72.496 271.305 72.496ZM294.108 72.88C293.02 72.88 291.868 72.592 290.652 72.016C289.5 71.44 288.54 70.544 287.772 69.328C287.004 68.112 286.62 66.544 286.62 64.624C286.62 62.512 287.132 60.144 288.156 57.52C289.18 54.896 290.556 52.304 292.284 49.744C294.012 47.12 295.996 44.72 298.236 42.544C300.54 40.304 302.94 38.544 305.436 37.264C307.932 35.92 310.428 35.248 312.924 35.248C314.332 35.248 315.42 35.504 316.188 36.016C316.956 36.464 317.34 37.2 317.34 38.224C317.34 38.48 317.308 38.768 317.244 39.088C317.18 39.344 317.02 39.6 316.764 39.856C316.508 39.408 316.06 39.088 315.42 38.896C314.78 38.64 314.044 38.512 313.212 38.512C311.164 38.512 309.148 39.152 307.164 40.432C305.244 41.648 303.484 43.248 301.884 45.232C300.284 47.152 298.876 49.264 297.66 51.568C296.444 53.808 295.484 55.984 294.78 58.096C294.14 60.144 293.82 61.904 293.82 63.376C293.82 64.72 294.108 65.808 294.684 66.64C295.324 67.408 296.156 67.792 297.18 67.792C298.908 67.792 300.988 66.736 303.42 64.624C305.852 62.512 308.348 59.504 310.908 55.6C313.468 51.696 315.772 47.088 317.82 41.776C319.228 38.064 320.668 34.288 322.14 30.448C323.676 26.608 325.212 22.928 326.748 19.408C328.284 15.888 329.788 12.752 331.26 10C332.732 7.184 334.14 4.976 335.484 3.376C336.828 1.712 338.012 0.879997 339.036 0.879997C339.612 0.879997 340.124 1.104 340.572 1.55199C341.02 2 341.244 2.576 341.244 3.27999C341.244 4.368 340.7 6.128 339.612 8.56C338.588 10.992 337.244 13.904 335.58 17.296C333.916 20.688 332.124 24.368 330.204 28.336C328.348 32.304 326.588 36.368 324.924 40.528C323.26 44.624 321.884 48.624 320.796 52.528C319.772 56.432 319.26 60.016 319.26 63.28C319.26 65.008 319.356 66.256 319.548 67.024C319.804 67.792 320.412 68.176 321.372 68.176C322.716 68.176 324.284 67.632 326.076 66.544C327.868 65.392 329.66 63.76 331.452 61.648C333.244 59.536 334.812 56.976 336.156 53.968L337.596 55.12C336.316 58.448 334.588 61.424 332.412 64.048C330.3 66.672 328.028 68.72 325.596 70.192C323.164 71.728 320.828 72.496 318.588 72.496C316.092 72.496 314.364 71.696 313.404 70.096C312.444 68.496 311.964 66.768 311.964 64.912C311.964 63.824 312.092 62.512 312.348 60.976C312.668 59.44 313.052 57.776 313.5 55.984C311.452 59.184 309.276 62.096 306.972 64.72C304.732 67.28 302.524 69.264 300.348 70.672C298.172 72.144 296.092 72.88 294.108 72.88Z" fill="black" fill-opacity="0.2"/>
</svg>
